<svg width="30" height="30" viewBox="0 0 30 30" fill="none" xmlns="http://www.w3.org/2000/svg">
<path d="M26.3334 26.751V10.449L14.75 3.24902L3.16671 10.449V26.751H8.95837V22.626C8.95837 21.0347 9.56857 19.5086 10.6547 18.3834C11.7409 17.2582 13.214 16.626 14.75 16.626C16.2861 16.626 17.7592 17.2582 18.8454 18.3834C19.9315 19.5086 20.5417 21.0347 20.5417 22.626V26.751H26.3334ZM17.6459 29.751V22.626C17.6459 21.8304 17.3408 21.0673 16.7977 20.5047C16.2546 19.9421 15.5181 19.626 14.75 19.626C13.982 19.626 13.2455 19.9421 12.7024 20.5047C12.1593 21.0673 11.8542 21.8304 11.8542 22.626V29.751H3.16671C2.39868 29.751 1.66212 29.435 1.11904 28.8723C0.57597 28.3097 0.270874 27.5467 0.270874 26.751V10.449C0.270869 9.93096 0.400362 9.42173 0.646743 8.97092C0.893124 8.5201 1.248 8.14306 1.6768 7.87652L13.2601 0.676522C13.7102 0.396769 14.2252 0.248993 14.75 0.248993C15.2749 0.248993 15.7899 0.396769 16.2399 0.676522L27.8233 7.87652C28.2521 8.14306 28.607 8.5201 28.8533 8.97092C29.0997 9.42173 29.2292 9.93096 29.2292 10.449V26.751C29.2292 27.5467 28.9241 28.3097 28.381 28.8723C27.838 29.435 27.1014 29.751 26.3334 29.751H17.6459Z" fill="#AAAAAA"/>
</svg>
