<svg width="30" height="30" viewBox="0 0 30 30" fill="none" xmlns="http://www.w3.org/2000/svg">
<path d="M19.5 29.502V22.002C19.5 20.8086 19.0259 19.664 18.182 18.82C17.3381 17.9761 16.1935 17.502 15 17.502C13.8065 17.502 12.6619 17.9761 11.818 18.82C10.9741 19.664 10.5 20.8086 10.5 22.002V29.502H3C2.20435 29.502 1.44129 29.186 0.87868 28.6234C0.316071 28.0607 1.38884e-10 27.2977 1.38884e-10 26.502V10.2C-4.98411e-06 9.68197 0.134146 9.17274 0.38939 8.72192C0.644633 8.27111 1.01227 7.89407 1.4565 7.62753L13.4565 0.427529C13.9227 0.147776 14.4563 0 15 0C15.5437 0 16.0773 0.147776 16.5435 0.427529L28.5435 7.62753C28.9877 7.89407 29.3554 8.27111 29.6106 8.72192C29.8659 9.17274 30 9.68197 30 10.2V26.502C30 27.2977 29.6839 28.0607 29.1213 28.6234C28.5587 29.186 27.7957 29.502 27 29.502H19.5Z" fill="url(#paint0_linear_1_490)"/>
<defs>
<linearGradient id="paint0_linear_1_490" x1="15" y1="0" x2="15" y2="29.502" gradientUnits="userSpaceOnUse">
<stop stop-color="#549994"/>
<stop offset="1" stop-color="#408782"/>
</linearGradient>
</defs>
</svg>
