<svg xmlns="http://www.w3.org/2000/svg" fill="none" viewBox="3.15 2.13 30.41 29.75">
<path d="M9.66675 21.25H5.323C4.1235 21.25 3.15112 22.2014 3.15112 23.375V29.75C3.15112 30.9236 4.1235 31.875 5.323 31.875H9.66675C10.8662 31.875 11.8386 30.9236 11.8386 29.75V23.375C11.8386 22.2014 10.8662 21.25 9.66675 21.25Z" fill="url(#paint0_linear_209_150)"/>
<path d="M20.5261 12.75H16.1824C14.9829 12.75 14.0105 13.7014 14.0105 14.875V29.75C14.0105 30.9236 14.9829 31.875 16.1824 31.875H20.5261C21.7256 31.875 22.698 30.9236 22.698 29.75V14.875C22.698 13.7014 21.7256 12.75 20.5261 12.75Z" fill="url(#paint1_linear_209_150)"/>
<path d="M31.3855 2.125H27.0417C25.8423 2.125 24.8699 3.07639 24.8699 4.25V29.75C24.8699 30.9236 25.8423 31.875 27.0417 31.875H31.3855C32.585 31.875 33.5574 30.9236 33.5574 29.75V4.25C33.5574 3.07639 32.585 2.125 31.3855 2.125Z" fill="url(#paint2_linear_209_150)"/>
<defs>
<linearGradient id="paint0_linear_209_150" x1="7.49487" y1="21.25" x2="7.49487" y2="31.875" gradientUnits="userSpaceOnUse">
<stop stop-color="#549994"/>
<stop offset="1" stop-color="#408782"/>
</linearGradient>
<linearGradient id="paint1_linear_209_150" x1="18.3542" y1="12.75" x2="18.3542" y2="31.875" gradientUnits="userSpaceOnUse">
<stop stop-color="#549994"/>
<stop offset="1" stop-color="#408782"/>
</linearGradient>
<linearGradient id="paint2_linear_209_150" x1="29.2136" y1="2.125" x2="29.2136" y2="31.875" gradientUnits="userSpaceOnUse">
<stop stop-color="#549994"/>
<stop offset="1" stop-color="#408782"/>
</linearGradient>
</defs>
</svg>